<?xml version="1.0" encoding="utf-8"?>
<!-- Designed by Vexels.com - 2020 All Rights Reserved - https://vexels.com/terms-and-conditions/  -->
<svg version="1.1" id="Layer_1" xmlns="http://www.w3.org/2000/svg" xmlns:xlink="http://www.w3.org/1999/xlink" x="0px" y="0px"
	 viewBox="0 0 1200 1200" enable-background="new 0 0 1200 1200" xml:space="preserve">
<path fill="#202020" stroke="#202020" stroke-width="3" stroke-miterlimit="10" d="M658.793,396.178
	c43.752-77.68,89.003-162.738,139.3-244.7c17.007-27.714,43.745-52.294,71.324-70.126c68.932-44.569,159.8-26.161,206.068,41.293
	c20.352,29.672,38.476,63.597,46.953,98.202c32.204,131.457,41.638,264.847,7.686,397.416
	c-23.759,92.766-53.03,184.155-81.115,275.767c-19.803,64.594-41.857,128.497-62.694,192.777
	c-14.544,44.859-44.993,68.323-89.738,55.807c-272.764-76.299-532.45-178.653-726.415-398.012
	C100.265,665.553,62.368,569.714,52.607,464.45c-9.214-99.366,39.373-170.639,135.355-196.172
	c118.185-31.442,235.768-29.981,344.38,32.475C580.141,328.239,621.238,367.379,658.793,396.178z M889.338,1019.399
	c42.199-128.778,85.095-259.768,128.049-390.74c39.367-120.038,35.312-241.821,11.81-363.58
	c-8.119-42.063-15.103-91.208-67.787-102.177c-52.221-10.873-76.122,31.931-96.446,67.644
	c-52.13,91.598-99.966,185.635-149.795,278.549c-28.155,52.499-42.854,53.112-78.761,4.087
	c-95.831-130.839-247.588-184.745-403.75-143.417c-59.708,15.802-75.769,39.815-65.395,101.706
	c16.936,101.04,65.419,184.918,140.773,253.739C470.299,873.404,668.556,952.4,873.18,1019.123
	C875.733,1019.956,878.774,1019.284,889.338,1019.399z"/>
</svg>
